<svg xmlns="http://www.w3.org/2000/svg" viewBox="0 0 64 64">
  <defs>
    <linearGradient id="bg" x1="10" y1="8" x2="54" y2="58" gradientUnits="userSpaceOnUse">
      <stop stop-color="#7c3aed"/>
      <stop offset="0.52" stop-color="#4f46e5"/>
      <stop offset="1" stop-color="#2563eb"/>
    </linearGradient>
    <radialGradient id="glow" cx="0" cy="0" r="1" gradientTransform="matrix(36 36 -36 36 18 12)" gradientUnits="userSpaceOnUse">
      <stop stop-color="#ffffff" stop-opacity=".34"/>
      <stop offset="1" stop-color="#ffffff" stop-opacity="0"/>
    </radialGradient>
  </defs>
  <rect width="64" height="64" rx="14" fill="url(#bg)"/>
  <rect width="64" height="64" rx="14" fill="url(#glow)"/>
  <path d="M32 6.4 54.13 19.2v25.6L32 57.6 9.87 44.8V19.2L32 6.4Z" fill="none" stroke="#fff" stroke-width="3.11" stroke-linejoin="round"/>
  <path d="M26.06 31.09c-4.66-4.39-10.79-2.93-12.07 2.19-1.1 4.57 4.39 7.41 11.15 4.94M37.94 31.09c4.66-4.39 10.79-2.93 12.07 2.19 1.1 4.57-4.39 7.41-11.15 4.94" fill="none" stroke="#fff" stroke-width="2.38" stroke-linecap="round" stroke-linejoin="round"/>
  <path d="M26.06 30.17a5.94 5.94 0 0 1 11.89 0v10.06a5.94 5.94 0 0 1-11.89 0V30.17Z" fill="none" stroke="#fff" stroke-width="3.11" stroke-linejoin="round"/>
  <path d="M26.06 34.01h11.89v4.85h-11.89Z" fill="#fff"/>
  <path d="M26.51 34.01h10.97M26.51 38.86h10.97" fill="none" stroke="#fff" stroke-width="2.74" stroke-linecap="round"/>
  <path d="M29.26 23.77c-1.1-3.66-3.29-5.49-5.76-4.85-1.83.46-2.56 1.92-2.47 3.93M34.74 23.77c1.1-3.66 3.29-5.49 5.76-4.85 1.83.46 2.56 1.92 2.47 3.93" fill="none" stroke="#fff" stroke-width="2.38" stroke-linecap="round"/>
</svg>
