<svg xmlns="http://www.w3.org/2000/svg" viewBox="0 0 64 64">
  <defs>
    <linearGradient id="bg" x1="10" y1="8" x2="54" y2="58" gradientUnits="userSpaceOnUse">
      <stop stop-color="#7c3aed"/>
      <stop offset="0.52" stop-color="#4f46e5"/>
      <stop offset="1" stop-color="#2563eb"/>
    </linearGradient>
    <radialGradient id="glow" cx="0" cy="0" r="1" gradientTransform="matrix(36 36 -36 36 18 12)" gradientUnits="userSpaceOnUse">
      <stop stop-color="#ffffff" stop-opacity=".34"/>
      <stop offset="1" stop-color="#ffffff" stop-opacity="0"/>
    </radialGradient>
  </defs>
  <rect width="64" height="64" rx="14" fill="url(#bg)"/>
  <rect width="64" height="64" rx="14" fill="url(#glow)"/>
  <g transform="translate(4 4) scale(.875)">
    <path d="M32 4 56.2 18v28L32 60 7.8 46V18L32 4Z" fill="none" stroke="#fff" stroke-width="3.4" stroke-linejoin="round"/>
    <g>
      <path d="M25.5 31c-5.1-4.8-11.8-3.2-13.2 2.4-1.2 5 4.8 8.1 12.2 5.4M38.5 31c5.1-4.8 11.8-3.2 13.2 2.4 1.2 5-4.8 8.1-12.2 5.4" fill="none" stroke="#fff" stroke-width="2.6" stroke-linecap="round" stroke-linejoin="round"/>
    </g>
    <g>
      <path d="M25.5 30a6.5 6.5 0 0 1 13 0v11a6.5 6.5 0 0 1-13 0V30Z" fill="none" stroke="#fff" stroke-width="3.4" stroke-linejoin="round"/>
      <path d="M25.5 34.2h13v5.3h-13Z" fill="#fff"/>
      <path d="M26 34.2h12M26 39.5h12" fill="none" stroke="#fff" stroke-width="3" stroke-linecap="round"/>
      <path d="M29 23c-1.2-4-3.6-6-6.3-5.3-2 .5-2.8 2.1-2.7 4.3M35 23c1.2-4 3.6-6 6.3-5.3 2 .5 2.8 2.1 2.7 4.3" fill="none" stroke="#fff" stroke-width="2.6" stroke-linecap="round"/>
    </g>
  </g>
</svg>
